<svg width="900" height="1100" viewBox="0 0 900 1100" fill="none" xmlns="http://www.w3.org/2000/svg">
  <rect width="900" height="1100" fill="#1F0B36"/>
  <g opacity="0.34" stroke="#F2E9FF" stroke-width="4" stroke-linecap="round" stroke-linejoin="round">
    <path d="M114 155c29-25 73-22 96 8 20 25 18 63-5 86-25 25-67 26-94 3-29-25-31-72 3-97Z"/>
    <path d="M142 137c-2-34 29-52 56-39 27 13 28 52 4 67"/>
    <path d="M119 267c31 25 78 29 116 5"/>
    <path d="M589 148h110c19 0 35 16 35 35v72c0 19-16 35-35 35H589c-19 0-35-16-35-35v-72c0-19 16-35 35-35Z"/>
    <path d="M584 196h120M616 148v-29M674 148v-29M616 235h23M666 235h18"/>
    <path d="M213 441h101c21 0 38 17 38 38v64c0 21-17 38-38 38H213c-21 0-38-17-38-38v-64c0-21 17-38 38-38Z"/>
    <path d="M210 481h108M227 522h76M235 440v-32h80v32"/>
    <path d="M654 431c49 0 89 40 89 89s-40 89-89 89-89-40-89-89 40-89 89-89Z"/>
    <path d="M654 466v58l39 24"/>
    <path d="M118 749c44-27 88-27 132 0 43 26 87 26 131 0"/>
    <path d="M120 806c44-27 88-27 132 0 43 26 87 26 131 0"/>
    <path d="M612 747h128v150H612z"/>
    <path d="M641 747v-43h70v43M641 790h70M641 836h42"/>
    <path d="M165 941c24-59 101-59 125 0M191 915c8-18 33-18 41 0M250 915c8-18 33-18 41 0"/>
    <path d="M563 962c31-52 111-52 142 0"/>
    <path d="M591 935c10-20 40-20 50 0M653 935c10-20 40-20 50 0"/>
  </g>
  <g opacity="0.22" stroke="#C9B8FF" stroke-width="3" stroke-linecap="round" stroke-linejoin="round">
    <path d="M418 124c33 18 63 18 92 0M419 169c33 18 63 18 92 0M419 214c33 18 63 18 92 0"/>
    <path d="M443 99v138M489 99v138"/>
    <path d="M77 365h78M116 326v78"/>
    <path d="M754 360h78M793 321v78"/>
    <path d="M445 388c-27 37-27 75 0 112 27-37 27-75 0-112Z"/>
    <path d="M487 388c-27 37-27 75 0 112 27-37 27-75 0-112Z"/>
    <path d="M420 636h98M420 680h98M420 724h68"/>
    <path d="M432 603h102v156H386V650l46-47Z"/>
    <path d="M103 622c24-21 54-21 78 0M109 656c18-16 42-16 60 0M119 688c10-9 23-9 33 0"/>
    <path d="M772 642c24-21 54-21 78 0M778 676c18-16 42-16 60 0M788 708c10-9 23-9 33 0"/>
    <path d="M401 892c35-38 94-38 129 0M414 934c28-28 75-28 103 0"/>
  </g>
  <g opacity="0.16" fill="#F2E9FF">
    <circle cx="95" cy="101" r="9"/>
    <circle cx="803" cy="165" r="11"/>
    <circle cx="525" cy="326" r="7"/>
    <circle cx="83" cy="553" r="8"/>
    <circle cx="814" cy="572" r="9"/>
    <circle cx="466" cy="829" r="10"/>
    <circle cx="779" cy="1005" r="7"/>
    <circle cx="101" cy="1002" r="10"/>
  </g>
</svg>
